<svg id="Capa_1" data-name="Capa 1" xmlns="http://www.w3.org/2000/svg" viewBox="0 0 1913.99 520"><defs><style>.cls-1{fill:#fff;}</style></defs><path d="M643.05,469.63c-53.8,43.21-112.21,71.26-183.63,53.57-22.22-5.5-40.47-18.31-55.13-36-2.21-2.67-3.62-6.3-8.55-5.1-2,.48-2.53-2-1.32-3.58a4,4,0,0,0,.39-4.94c-32.89-62-21.25-120.08,20.85-171.76C470.89,234,544.52,207.38,631.31,216c25.6,2.55,50.47,8.55,75.36,14.63l0,0c-14.62-38.77-37.69-72.13-66.44-101.57C572,59.34,488.9,20.24,391.77,12.55c-130-10.3-248.71,27.12-361.06,89.14-7.94,4.38-15.64,9.17-24.32,12.63a21.31,21.31,0,0,1,2.89-2.51C116,47.14,230.71,7.35,356.53,8.6,493.66,10,603.72,66.4,683.31,179.19c10.48,14.84,18.46,31.19,25.06,48.14,1,2.53,2,4.78,5,5.71,73.19,22.38,142.53,55,214.57,80.43C1066,362.22,1207.84,395.62,1353,415.16a2207.1,2207.1,0,0,0,335.63,19.61c76.35-1.41,152.75-3.66,228.35-16.31,1-.17,2.12,0,3.43,2-13.64,2-27.23,4.48-40.93,5.9a2163.72,2163.72,0,0,1-263.79,10.86c-277.23-5.25-544.78-57.61-801-165a1025,1025,0,0,0-97.05-35.49,28.65,28.65,0,0,0-5.2-.6,37.47,37.47,0,0,0,.86,4.75c16.47,51.45,14.83,101.79-9.22,150.77-.29-.21-.58-.42-.88-.62,22.4-49.43,24.08-99.82,7.25-151.15-1.48-4.51-3.89-6.64-8.41-7.85-27.24-7.25-54.72-13.1-83-14.43-90-4.24-163.68,27.76-214.4,103-31.32,46.43-36,97.53-9.36,149.06,1.19,2.31,2,6.28,6.31,2.78q68-54.72,136.31-109.52a31.59,31.59,0,0,0-24.27,5.49c-1.58,1.1-3.47,3-5.09.5-1.52-2.3.62-3.87,2.33-4.69,5.06-2.41,10.08-5.49,15.47-6.54,21-4.1,42,11.73,36.9,28.24-2.94,9.54-3,18.81-3.57,28.32-.12,1.77-.85,4.34-2.12,5-2.28,1.24-3.31-1.42-4.39-3-2.94-4.24-5.7-8.6-8.67-12.81a14.11,14.11,0,0,0-2.92-2.41c-.53,1.25-1.41,2.46-1.53,3.75-2,20.38-11.54,36-28.7,47.24-11,7.22-16.49,19.34-24.51,29.21-.69.85.44,3.72,1.38,5.24C495,497.38,502,508.14,508.84,519c1.16,1.84,2.66,4,.14,5.66s-3.93-.58-5.1-2.39c-5.7-8.79-10.58-18.25-17.19-26.29-8.1-9.83-7.8-17.84,1.33-26.44,3-2.83,4.83-6.92,7.19-10.43-3.94.37-8,.2-11.76,1.29-3.49,1-10.25-5.23-10.29,4.08-.06,18.45.06,36.91-.08,55.37,0,3.61,1.39,5,4.79,5.46a146,146,0,0,0,42.78.08c46.21-6.74,85.61-28.11,121.66-56.62Zm-89.19-62.24c.93-5.92.82-12.12,3-17.42,3.06-7.53,3.4-14.12-3-19.43s-12.83-3.57-19,1.38c-27.3,22-54.61,44.06-82.16,65.79-4.67,3.69-3.64,5.32.51,8,16.57,10.59,33.92,12.65,51.64,3.8,20.23-10.09,29.57-27.46,30.43-49.57.2-5.19,1.62-6.07,6.58-4.84C548.72,396.76,549.31,404,553.86,407.39Zm-86.35,83.1c0-9.31,0-18.62,0-27.93,0-1.95.12-3.8-2.08-5.15-21-13-21-13-40.34,2.63-6.61,5.33-13.11,10.79-19.86,15.92-3.07,2.34-3.41,4.18-1,7.28,15.26,19.33,34.79,32.1,58.47,38.74,3.56,1,4.88.21,4.82-3.57C467.41,509.11,467.51,499.8,467.51,490.49Z" transform="translate(-6.39 -8.57)"/><path d="M664,449.57q-6,6-12,12l-.68-.82,12-11.86Z" transform="translate(-6.39 -8.57)"/><path d="M652,461.61l-9,8-.74-.91,9-7.93Z" transform="translate(-6.39 -8.57)"/><path d="M700,399.61q-2.49,4.5-5,9l-.74-.59q2.49-4.49,5-9Z" transform="translate(-6.39 -8.57)"/><path d="M672,440.56q-3,3.48-6,7l-.7-.61,6.13-6.92Z" transform="translate(-6.39 -8.57)"/><path d="M704.08,391.68l-3,6-.8-.59,2.94-6Z" transform="translate(-6.39 -8.57)"/><path d="M681,429.52l-4,5-.67-.55,3.95-5Z" transform="translate(-6.39 -8.57)"/><path d="M677,434.55q-2,2.51-4,5l-.63-.56,4-5Z" transform="translate(-6.39 -8.57)"/><path d="M695,408.61l-3.07,4.94-.66-.53c1-1.67,2-3.33,3-5Z" transform="translate(-6.39 -8.57)"/><path d="M686,422.56c-1,1.34-2,2.68-3,4l-.62-.51,2.91-4.06Z" transform="translate(-6.39 -8.57)"/><path d="M691.94,413.55,690,416.6l-.71-.57,2-3Z" transform="translate(-6.39 -8.57)"/><path d="M690,416.6l-2,3-.66-.53,2-3Z" transform="translate(-6.39 -8.57)"/><path d="M688,419.57l-2,3-.66-.53,2-3Z" transform="translate(-6.39 -8.57)"/><path d="M683,426.59,681,429.52l-.68-.54c.71-1,1.42-1.93,2.12-2.9Z" transform="translate(-6.39 -8.57)"/><path d="M701.06,397.66c-.36.65-.71,1.3-1.06,1.95l-.76-.58,1-2Z" transform="translate(-6.39 -8.57)"/><path d="M673,439.54l-1,1-.58-.56.92-1Z" transform="translate(-6.39 -8.57)"/><path d="M666,447.53l-1,1.05-.66-.68.94-1Z" transform="translate(-6.39 -8.57)"/><path d="M665,448.58l-1,1-.65-.64c.32-.34.65-.68,1-1Z" transform="translate(-6.39 -8.57)"/><path class="cls-1" d="M706.62,230.71l0,0Z" transform="translate(-6.39 -8.57)"/></svg>